<?xml version="1.0" encoding="UTF-8" standalone="no"?>
<!-- Created with Inkscape (http://www.inkscape.org/) -->

<svg
   xmlns:dc="http://purl.org/dc/elements/1.1/"
   xmlns:cc="http://creativecommons.org/ns#"
   xmlns:rdf="http://www.w3.org/1999/02/22-rdf-syntax-ns#"
   xmlns:svg="http://www.w3.org/2000/svg"
   xmlns="http://www.w3.org/2000/svg"
   xmlns:sodipodi="http://sodipodi.sourceforge.net/DTD/sodipodi-0.dtd"
   xmlns:inkscape="http://www.inkscape.org/namespaces/inkscape"
   width="200mm"
   height="200mm"
   viewBox="0 0 708.6614 708.6614"
   id="svg3453"
   version="1.1"
   inkscape:version="0.91 r13725"
   sodipodi:docname="logo2.svg">
  <defs
     id="defs3455">
    <inkscape:perspective
       sodipodi:type="inkscape:persp3d"
       inkscape:vp_x="-332.85712 : 247.18785 : 1"
       inkscape:vp_y="0 : 1000 : 0"
       inkscape:vp_z="410.08999 : 258.61642 : 1"
       inkscape:persp3d-origin="12.902147 : 111.93476 : 1"
       id="perspective4271" />
  </defs>
  <sodipodi:namedview
     id="base"
     pagecolor="#ffffff"
     bordercolor="#666666"
     borderopacity="1.0"
     inkscape:pageopacity="1"
     inkscape:pageshadow="2"
     inkscape:zoom="0.98994949"
     inkscape:cx="262.6424"
     inkscape:cy="320.74343"
     inkscape:document-units="px"
     inkscape:current-layer="layer1"
     showgrid="false"
     showborder="true"
     inkscape:showpageshadow="false"
     showguides="true"
     inkscape:guide-bbox="true"
     inkscape:window-width="1366"
     inkscape:window-height="705"
     inkscape:window-x="0"
     inkscape:window-y="0"
     inkscape:window-maximized="1">
    <sodipodi:guide
       position="267.18533,326.27926"
       orientation="1,0"
       id="guide4263"
       inkscape:label=""
       inkscape:color="rgb(0,0,255)" />
    <sodipodi:guide
       position="384.64284,329.2857"
       orientation="0,1"
       id="guide4297" />
    <sodipodi:guide
       position="467.09819,327.94641"
       orientation="1,0"
       id="guide4299" />
  </sodipodi:namedview>
  <metadata
     id="metadata3458">
    <rdf:RDF>
      <cc:Work
         rdf:about="">
        <dc:format>image/svg+xml</dc:format>
        <dc:type
           rdf:resource="http://purl.org/dc/dcmitype/StillImage" />
        <dc:title></dc:title>
      </cc:Work>
    </rdf:RDF>
  </metadata>
  <g
     inkscape:label="Layer 1"
     inkscape:groupmode="layer"
     id="layer1"
     transform="translate(0,-343.7007)"
     style="display:inline">
    <g
       id="g6155">
      <g
         id="g6149">
        <g
           id="g4267"
           transform="translate(32.857139,-29.999997)">
          <g
             id="g4291"
             style="fill:#000000;fill-opacity:1">
            <path
               style="opacity:1;fill:#000000;fill-opacity:1"
               d="M 371.87305 220.33984 L 301.99805 299.36328 L 289.11133 313.9375 C 342.11584 304.86661 397.51716 304.86623 450.32812 314.53516 L 437.46875 299.0957 L 371.87305 220.33984 z M 367.70312 332.8418 C 331.51259 332.91298 295.30649 337.38454 260.73047 346.03125 L 232.12109 378.38477 L 268.55859 378.3125 L 268.87891 383.58008 C 332.8967 369.6448 401.46252 369.1964 465.43164 383.30273 L 465.75977 377.92578 L 503.06445 377.85352 L 476.97656 346.53125 C 476.67856 346.5165 476.36925 346.48126 476.03906 346.39453 C 441.09358 337.21558 404.40804 332.76961 367.70312 332.8418 z M 367.70312 398.55664 C 334.89026 398.62118 302.06543 402.30557 270.45312 409.43555 L 277.85742 530.99805 L 456.43945 530.99805 L 463.85938 409.12305 C 432.61554 401.96933 400.16772 398.49279 367.70312 398.55664 z M 367.67969 425.45703 C 395.59662 425.41108 423.5017 428.63094 450.2168 435.25391 C 454.94541 439.98253 456.68466 457.01332 450.2168 455.31445 C 396.97519 441.32975 338.42944 441.7697 285.07422 455.31445 C 278.59254 456.95988 280.34561 439.98253 285.07422 435.25391 C 311.83421 428.81473 339.76275 425.50298 367.67969 425.45703 z M 371.24219 466.54688 C 391.80755 466.51303 412.36491 468.88478 432.04492 473.76367 C 435.52831 477.24707 436.80955 489.79447 432.04492 488.54297 C 392.82383 478.24097 349.69541 478.56506 310.39062 488.54297 C 305.61581 489.7551 306.90723 477.24707 310.39062 473.76367 C 330.10371 469.02017 350.67683 466.58072 371.24219 466.54688 z M 367.66016 499.87695 C 380.69225 499.8555 393.72035 501.3575 406.19141 504.44922 C 408.3988 506.65662 409.21072 514.60751 406.19141 513.81445 C 381.33733 507.28616 354.00672 507.49153 329.09961 513.81445 C 326.07386 514.58256 326.89222 506.65662 329.09961 504.44922 C 341.59162 501.4433 354.62806 499.8984 367.66016 499.87695 z "
               transform="translate(-32.857139,373.7007)"
               id="path4265" />
          </g>
        </g>
      </g>
    </g>
    <g
       id="g6146" />
  </g>
  <g
     inkscape:groupmode="layer"
     id="layer3"
     inkscape:label="Layer 2"
     style="display:none">
    <path
       style="opacity:1;fill:#ffffff;fill-opacity:1;stroke:none"
       d="m 298.64605,452.48293 c -4.15207,0.78603 -8.35132,1.37489 -12.42048,2.54196 -2.18224,0.60691 -4.40906,1.02684 -6.65559,1.30469 -2.17348,0.32299 -4.35327,0.63994 -6.47451,1.22774 -1.50384,0.80652 -2.39574,2.32311 -3.31228,3.69681 -0.47972,1.50593 -1.43902,3.05992 -0.9295,4.68683 1.12144,1.64824 3.20837,2.1035 5.01603,2.57854 3.04824,0.7096 6.20854,0.36746 9.29279,0.78521 1.79216,0.12394 3.56037,-0.33985 5.35047,-0.32898 1.63274,-0.24638 3.32564,-0.92611 4.94548,-0.21017 1.43119,0.58338 2.96316,0.63805 4.47662,0.80107 0.97939,0.29152 1.87562,-0.29207 2.72739,-0.51321 0.55467,0.10642 -0.28648,0.69548 0.32725,0.56842 1.87333,0.32057 3.79091,0.0999 5.67221,0.36919 3.52642,0.37879 7.06652,-0.5406 10.58617,0.0282 4.14413,0.68921 8.36373,0.73111 12.55306,0.6774 1.67365,-0.11346 3.16077,1.2353 4.83638,0.47719 1.20903,-0.45387 2.46736,-0.0889 3.71212,-0.17247 1.38958,-0.23597 2.70434,0.30895 4.05708,0.35914 1.64448,-0.22011 3.28893,-0.18695 4.90922,0.1818 2.12277,0.24671 4.26417,0.15002 6.38954,0.37245 1.67651,0.18067 3.38275,-0.10946 5.03363,0.30778 1.49882,0.37631 3.03622,0.46476 4.57124,0.33772 3.73226,-0.0569 7.39381,0.91282 11.12617,0.89202 1.11812,-0.20932 2.1116,0.54551 2.88604,0.95914 1.60457,-0.23329 3.1909,0.44806 4.79653,0.21004 2.08762,0.0977 4.12549,0.60394 6.19766,0.83867 1.61478,-0.17362 3.2801,-0.25706 4.85942,0.19679 1.75155,0.18523 3.55801,0.17038 5.23183,0.78719 1.65707,0.30011 3.42715,-0.0489 5.00171,0.66913 1.37856,0.0385 2.82231,0.94186 4.04191,0.87494 1.24201,-0.23559 2.54564,0.26784 3.82322,0.26055 2.29175,0.27941 4.56815,0.67306 6.8615,0.94151 1.53522,-0.33333 2.91567,0.67065 4.42041,0.72058 0.59585,0.0666 1.28236,0.21693 1.60165,0.78718 -0.339,-0.55231 0.81326,-0.78948 0.85986,-0.21193 1.49444,-0.64491 2.98948,0.35201 4.47186,0.52683 2.48147,0.49027 4.93331,1.20582 7.47098,1.33195 3.4975,0.55309 7.0055,1.06674 10.54674,1.22945 1.59185,0.0491 3.01238,0.85333 4.57828,1.04957 2.47675,0.43314 4.95214,0.90296 7.46884,1.03045 2.25842,0.1108 4.49476,0.53922 6.7578,0.54801 -0.35939,0.0369 -0.27972,-0.86241 -0.63884,-0.52076 0.18219,-0.56949 -0.94542,-0.45618 -1.1051,-0.61765 -1.1803,0.18428 -2.10301,-0.95701 -3.30009,-1.01089 -7.03837,-2.20327 -14.07676,-4.40652 -21.1151,-6.60976 -1.6515,-0.22285 -3.13622,-1.05644 -4.75649,-1.40486 -1.56387,-0.79437 -3.31435,-1.10935 -5.04714,-1.25649 -0.76065,-0.2974 -1.60081,-0.36864 -2.31315,-0.79022 0.51325,-0.83646 -1.43887,0.46573 -1.23833,-0.51469 -1.40162,0.74407 -2.67629,-0.36859 -3.85982,-0.91823 -0.66544,-0.44738 -0.97424,0.42539 -1.64449,0.0432 -0.89952,0.10452 -1.48848,-0.53032 -2.00393,-1.05318 -1.20416,-0.34401 -1.8694,-1.93715 -3.31571,-1.29327 -0.86951,0.2864 -1.84529,0.32579 -2.29497,-0.52077 -0.88512,-0.20417 -2.03559,0.70185 -2.64012,0.27248 -0.1247,-0.60752 -0.61674,-0.87825 -1.02338,-0.95674 -0.97159,-0.67605 -2.48043,0.46307 -3.20378,-0.81693 -1.35108,-0.66791 -3.12228,0.30439 -4.23523,-0.98149 -1.53098,-0.52079 -3.15055,-0.76072 -4.72273,-1.13488 -1.43841,-0.20524 -3.02778,-0.29452 -4.06962,-1.45076 -1.2629,-0.99387 -2.97204,-0.30247 -4.42008,-0.66854 -2.04045,-0.64091 -4.21747,-0.71437 -6.25886,-1.3396 -1.34406,-0.53729 -2.83827,-0.66722 -4.10823,-1.39498 -0.93879,-1.01856 -2.1407,0.8267 -3.25174,-0.0575 -1.41019,-0.44834 -2.78184,-1.1309 -4.2938,-1.1318 -1.53501,-0.0891 -3.00838,-0.55461 -4.47436,-0.98153 -0.19313,0.69426 -0.24655,-0.2929 -0.49248,-0.18275 -1.14991,-0.74541 -2.44548,-1.00628 -3.77008,-0.78518 -1.4109,-0.51734 -2.85953,-0.43809 -4.31778,-0.22752 -1.97731,0.0901 -3.9409,-0.23513 -5.90708,-0.39106 -1.88773,-0.30386 -3.33688,-1.91208 -5.31056,-1.90441 -1.43439,-0.0655 -2.94057,0.01 -4.25957,-0.64892 -1.56257,-0.39059 -3.12581,0.60607 -4.69159,0.1443 -4.07396,-0.69553 -8.22118,-0.72932 -12.3285,-1.07917 -1.2589,-0.21417 -2.57979,-0.35067 -3.82584,0.01 -0.19437,-0.80192 -0.96992,0.43458 -1.47083,-0.13993 -2.92062,-0.62639 -5.93637,-0.29125 -8.88197,-0.71459 -1.52152,-0.10851 -3.08068,-0.18371 -4.57062,0.20673 -2.35445,0.14526 -4.72936,-0.13002 -6.99696,-0.77509 -0.5005,-0.0636 -1.00122,-0.14906 -1.50778,-0.12108 z m 68.10154,6.53374 c 0.17057,0.0988 0.43652,0.09 0,0 z m -18.85335,-4.52941 -0.24524,-0.13631 0.24524,0.13631 z m -5.79498,0.0455 c 0.12184,0.45729 0.44991,-0.14336 0,0 z m -0.89921,0.9204 c -0.047,0.66724 -0.55905,-0.32543 0,0 z m 2.91263,0.15744 c 0.2717,0.67755 -0.61295,-0.22931 0,0 z m 10.12455,0.69334 c -0.3873,0.39146 0.44112,-0.13422 0,0 z m -1.22622,0.0697 c -0.29226,0.81564 0.76464,-0.25268 0,0 z m 1.20806,0.23011 c -0.15934,0.38901 0.60472,-0.41292 0,0 z m -1.57439,0.33605 c 0.15934,0.19639 0.18847,-0.11556 0,0 z m 1.70457,0.16962 c -0.0213,0.37612 0.46695,-0.59376 0,0 z m 5.16522,0.0303 c 0.19498,0.25 -0.0811,-0.4311 0,0 z m 0.13021,-0.0394 c -0.39121,0.50674 0.40598,-0.20081 0,0 z m 3.37284,0.0697 c -0.54224,0.48058 0.35131,0.0409 0,0 z m -0.55104,0.0636 c -0.0704,0.33468 0.23353,-0.21086 0,0 z m -2.91565,0.17553 c 0.23361,0.82987 0.51943,-0.61904 0,0 z m 2.8339,0.26342 c 0.22805,0.46678 0.35871,-0.88088 0.002,-0.004 l -0.002,0.004 z m 0.67821,-0.0546 c -0.22416,0.49282 0.33713,-0.0763 0,0 z m -90.91207,0.43297 c -0.32495,0.37006 0.3223,-0.13707 0,0 z m 96.0016,0.0213 c -0.40999,0.35408 0.41315,-0.0923 0,0 z m -0.85988,0.43295 0.16962,-0.019 -0.16962,0.019 z m -1.92257,0.38149 c -0.26837,0.16467 -0.20775,-0.70223 0,0 z m 2.64317,-0.0546 c -0.22047,0.58715 0.38104,-0.31128 0,0 z m -3.30925,0.11499 c -0.12241,0.25283 -0.16924,-0.34688 0,0 z m 4.1116,-0.0272 c -0.41027,0.27978 0.37205,-0.036 0,0 z m -4.17821,0.42084 c 0.19403,0.59465 -0.39495,-0.95126 0,0 z m 1.76817,0.19681 c -0.10051,0.42412 -0.28236,-0.87242 0,0 z m -95.47479,-0.16048 c -0.0756,0.15115 0.14182,-0.0619 0,0 z m -0.26946,0.25432 c 0.2195,0.34992 0.0306,-0.69055 0,0 z m 94.34849,0.0213 c -0.31143,0.048 -0.0573,-0.30795 0,0 z m 13.12498,0.35425 c -0.88322,0.0592 0.88244,-0.0269 0,0 z m -6.30362,0.53285 c 0.70667,0.31025 -0.8603,0.49134 -0.28461,-0.004 l 0.28337,0.004 10e-4,2e-5 z m 7.72057,0.31793 c -0.0527,0.72475 0.26163,-0.17439 0,0 z m -1.26557,0.51164 c 0.0874,0.39539 -0.47696,-0.44339 0,0 z m -5.72231,0.19076 c -0.21994,0.33721 -0.0352,-0.82422 0,0 z m -1.04759,-0.15439 c 0.0714,0.28556 -0.26012,-0.13764 0,0 z m 18.16608,1.31099 -0.0455,-0.019 0.0455,0.019 z m -120.17155,0.37846 c -0.42332,0.0948 0.88248,-0.3094 0.0352,-0.0133 l -0.0352,0.0133 z m 123.06904,0.42992 -0.10909,0.24829 c 0.0902,-0.01 0.32688,-0.31785 0.10909,-0.24829 z m 7.30881,2.90354 c 0.50209,-0.0428 0.25287,-0.0215 0,0 z m 4.12673,0.38755 0.006,-0.1 -0.006,0.1 z m 6.89098,0.68728 c -0.043,0.64566 0.34109,-0.38762 0,0 z m -0.13631,0.22406 0.0786,-0.27226 7e-5,-2.3e-4 -0.0786,0.27224 -6e-5,2.5e-4 z m -121.34629,0.32093 c 0.0289,0.3954 -0.99916,-0.23551 -0.19679,-0.19076 l 0.19679,0.19076 z m 121.39473,-0.004 c -0.4942,0.39048 0.75894,-0.0739 0.0272,-0.0546 l -0.17572,-0.11213 0.1483,0.16658 z m -129.24247,0.13022 c 0.22329,0.80257 -0.73695,-0.29168 0,0 z m 130.23252,0.3512 c 0.14088,0.24133 0.10642,-0.27189 0,0 z m -1.07483,0.0133 c -0.5676,0.74326 0.64388,0.33864 0,0 z m 0.22103,0.20892 -0.0272,-0.0636 0.0272,0.0636 z m -5.05622,0.17267 c -0.28032,-0.01 -0.0238,-0.34408 0,0 z m 8.02637,-0.0133 c -0.10147,0.37472 0.22993,0.002 0,0 z m -7.94159,0.26036 c 0.19117,0.55798 -0.90495,-0.0813 -0.23011,-0.2634 l 0.18638,0.21343 0.0438,0.0499 z m -115.4302,-0.23009 c -0.54641,0.65675 0.34661,-0.0843 0,0 z m 123.71391,0.35728 c 0.25543,0.28009 -0.37132,-0.84913 -0.0133,-0.0428 l 0.0133,0.0428 z m -91.91724,-0.0514 c -0.18962,0.58538 -0.75352,-0.34212 -0.10604,-0.19074 l 0.10604,0.19074 z m -24.84816,-0.12413 c 0.40003,0.55738 -0.33715,-0.0114 0,0 z m 113.84975,0.12108 c 0.25432,0.11879 0.23734,-0.29946 0,0 z m -110.9008,-0.0211 c -0.33384,0.70531 0.5972,-0.18752 0,0 z m -10.1851,0.0133 c -0.028,0.43326 0.27231,-0.162 0,0 z m 6.18858,0.59646 c -0.002,0.71773 0.85988,-0.41134 0.14221,-0.24525 l -0.14221,0.24512 -8e-5,1.3e-4 z m 120.81644,-0.0213 c 0.30199,0.0567 -0.24865,-0.27585 0,0 z m -0.46626,0.019 c 0.12393,-0.13726 -0.36462,-0.10908 0,0 z m 0.28459,0.01 c -0.21636,0.50508 0.30441,-0.18619 0,0 z m -0.34212,0.0213 c 0.15706,0.48085 0.51998,-0.17762 0,0 z m -2.63106,0.26342 c 0.0878,0.21467 0.16714,-0.13326 0,0 z m -98.75072,0.23919 0.01,-0.15154 -0.01,0.15154 z m 97.22478,0.0333 c 0.4159,-0.11898 0.74133,0.33763 0.23918,0.56615 -0.12736,0.0455 -0.58793,-0.64723 -0.23918,-0.56615 z m 2.53416,0.24221 c 0.41825,0.66245 -0.71128,-0.12069 0,0 z m 4.99567,0.0605 c -0.43055,0.86127 0.85821,-0.17457 0,0 z m -101.81171,0.0636 -0.19378,0 0.19378,0 z m 94.49685,0.10889 c 0.0226,0.11727 0.0862,-0.0411 0,0 z m -0.21195,0.17857 c 0.21465,0.30717 -0.73002,-0.51342 -0.0236,-0.0133 l 0.0236,0.0133 z m 2.18599,-0.0605 c 0.043,0.31957 -0.14335,-0.12145 0,0 z m 5.72231,-0.006 c -0.68251,0.52928 0.88682,0.7935 0.28156,0.0847 -0.0628,-0.083 -0.1839,-0.13155 -0.28156,-0.0847 z m -60.29922,0.48443 c 0.0588,0.28908 -0.40201,-0.4905 0,0 z m 60.65345,-0.0908 c -0.35311,0.28566 -0.24581,-0.15154 0,0 z m 0.16048,0.11213 c 0.12946,0.30515 0.50838,-0.49535 0,0 z m -8.36546,0.0133 c -0.0748,0.28697 -0.21714,-0.33394 0,0 z m 11.13278,0.95672 -0.0213,-0.17553 0.0213,0.17553 z m -2.77034,0.0969 c 0.26707,0.0114 -0.11975,-0.25803 0,0 z m -39.90479,0.59646 c 0.34643,0.25066 -0.47511,0.60615 -0.33606,0.16048 -0.29659,0.61996 -0.20132,-0.59946 0.0969,-0.0333 0.10946,-0.0133 0.17819,-0.44062 0.23918,-0.12717 z m 47.94932,0.0546 c -0.006,0.53992 0.4458,0.38019 0.31792,0.0605 l -0.1483,-0.103 -0.16962,0.0423 z m -0.45111,0.52983 c -0.16506,0.5308 0.52806,-0.82173 0.0312,-0.0402 l -0.0312,0.0402 z m -56.33298,-0.0211 c -0.36603,0.71398 0.73351,-0.26975 0,0 z m 56.71447,0.38753 c 0.40508,0.51283 0.28805,-0.87087 0,0 z m 0.37844,0.61767 c 0.0466,0.22803 0.20703,0.48467 -0.28459,0.48745 0.34722,-0.54936 -0.58431,0.37686 -0.51469,-0.34515 0.13726,-0.29772 0.55968,0.004 0.79928,-0.14221 z m 3.83607,0.78717 c -0.38754,-0.004 0.58095,-0.5383 0,0 z m -0.1483,0.16963 c 0.17667,0.41829 -0.28628,-0.048 0,0 z m -42.8144,0.45111 c 0.12869,0.55113 0.65959,-0.31958 0.0697,-0.0455 l 0.0152,-0.11213 -0.0847,0.15744 z m 16.40699,2.29196 c 0.32668,-0.019 0.0883,-0.38164 0,0 z m 13.80015,0.92646 c -0.1384,0.0366 0.0385,-0.18657 0,0 z m 13.29756,0.4148 c 0.37819,0.82706 -0.61512,0.16487 0,0 z m -13.12498,0.16049 c 0.0449,0.36988 0.20964,-0.18219 0,0 z m 3.43036,0.32093 c 0.20096,0.30936 -0.29769,-0.14602 0,0 z m 4.3205,0.82959 -0.0666,-0.27545 -2e-5,-8e-5 0.0666,0.27546 2e-5,7e-5 z m 8.45328,0.26036 c 0.19563,0.62433 -0.51864,-0.14107 0,0 z m 20.84252,1.00822 -0.24221,-0.12717 0.24221,0.12717 z m 12.83434,3.26384 c 0.32652,0.0744 -0.57253,-0.66663 -0.0211,-0.0341 l 0.0211,0.0341 z m 0.2755,-0.16353 c -0.52876,0.35166 0.26857,0.0573 0,0 z m -1.08391,0.0455 c -0.11079,0.43232 0.33108,-0.13231 0,0 z"
       id="rect4320"
       inkscape:connector-curvature="0"
       sodipodi:nodetypes="ccccsscccccccc" />
    <path
       sodipodi:nodetypes="ccccsscccccccc"
       inkscape:connector-curvature="0"
       id="path5234"
       d="m 279.04027,386.29814 c -5.29662,1.0027 -10.6534,1.75388 -15.84422,3.24268 -2.78378,0.77419 -5.62446,1.30988 -8.49024,1.6643 -2.77262,0.41203 -5.55326,0.81636 -8.25923,1.56619 -1.91838,1.02884 -3.05615,2.96349 -4.22533,4.71584 -0.61195,1.92107 -1.83569,3.90341 -1.18572,5.97877 1.43056,2.1026 4.09279,2.68336 6.39873,3.28933 3.8885,0.90521 7.91995,0.46876 11.85437,1.00168 2.28618,0.1582 4.5418,-0.43356 6.82537,-0.41968 2.08281,-0.31431 4.24235,-1.18141 6.3087,-0.26813 1.82571,0.74421 3.77997,0.81397 5.71061,1.02191 1.2494,0.3719 2.39265,-0.3726 3.47923,-0.65468 0.70756,0.13555 -0.36544,0.88718 0.41745,0.7251 2.38971,0.40894 4.8359,0.12755 7.23577,0.47099 4.49849,0.48316 9.01443,-0.68963 13.50428,0.036 5.28649,0.87918 10.66923,0.93264 16.01338,0.86412 2.13499,-0.14468 4.03205,1.57582 6.16956,0.60872 1.5423,-0.57896 3.14747,-0.11327 4.73538,-0.22007 1.77261,-0.301 3.4498,0.39413 5.17541,0.45815 2.0978,-0.28078 4.19557,-0.23852 6.26247,0.2318 2.70792,0.31471 5.43961,0.19142 8.15084,0.47512 2.13864,0.2305 4.31524,-0.13955 6.42117,0.39263 1.91197,0.48002 3.87318,0.59286 5.83132,0.43079 4.76108,-0.0725 9.43196,1.16444 14.19315,1.1379 1.42632,-0.26699 2.69368,0.69592 3.6816,1.22356 2.04686,-0.29762 4.07048,0.57157 6.11871,0.26793 2.66308,0.1245 5.26269,0.7704 7.90605,1.06986 2.05992,-0.22139 4.18429,-0.32794 6.19895,0.25105 2.23438,0.23631 4.5388,0.21738 6.674,1.00418 2.11387,0.38282 4.37185,-0.0624 6.38047,0.85356 1.75856,0.0491 3.60029,1.20147 5.15606,1.11612 1.58441,-0.30054 3.24736,0.34167 4.87711,0.33236 2.92348,0.35643 5.82738,0.8586 8.7529,1.20105 1.95843,-0.4252 3.7194,0.85552 5.6389,0.9192 0.76011,0.0851 1.63587,0.27673 2.04317,1.00418 -0.43243,-0.70455 1.03744,-1.00709 1.09688,-0.27033 1.9064,-0.8227 3.81357,0.44902 5.70457,0.67202 3.16548,0.62542 6.29319,1.53822 9.53036,1.69912 4.4616,0.70555 8.9366,1.36078 13.454,1.56836 2.03064,0.0626 3.84275,1.08856 5.84031,1.33888 3.15946,0.55254 6.31721,1.15188 9.52765,1.31449 2.88097,0.14145 5.73376,0.68786 8.6206,0.69909 -0.45844,0.047 -0.35681,-1.10013 -0.81495,-0.6643 0.23254,-0.72647 -1.206,-0.58194 -1.40972,-0.78792 -1.50562,0.23496 -2.68269,-1.22081 -4.20975,-1.28956 -8.97852,-2.8106 -17.95707,-5.62118 -26.93559,-8.43177 -2.10671,-0.28428 -4.00072,-1.34763 -6.06761,-1.7921 -1.99495,-1.01334 -4.22796,-1.41514 -6.43841,-1.60283 -0.97033,-0.3794 -2.0421,-0.47026 -2.95079,-1.00807 0.65473,-1.06705 -1.83549,0.59412 -1.57966,-0.65658 -1.78801,0.9492 -3.41403,-0.47017 -4.92381,-1.17133 -0.84886,-0.57069 -1.2428,0.54266 -2.09779,0.0552 -1.14748,0.13326 -1.89879,-0.6765 -2.55632,-1.34351 -1.53609,-0.43883 -2.3847,-2.47113 -4.22969,-1.64976 -1.10921,0.36537 -2.35397,0.41562 -2.9276,-0.66431 -1.12911,-0.26045 -2.59672,0.89533 -3.36789,0.3476 -0.15896,-0.77499 -0.78673,-1.12036 -1.30546,-1.22048 -1.23943,-0.86241 -3.16419,0.59071 -4.08691,-1.04211 -1.72353,-0.85204 -3.98296,0.38827 -5.4027,-1.25207 -1.953,-0.66433 -4.019,-0.97039 -6.02458,-1.4477 -1.8349,-0.2618 -3.8624,-0.37572 -5.19142,-1.85068 -1.61102,-1.26781 -3.79129,-0.38583 -5.63849,-0.85279 -2.60291,-0.8176 -5.38002,-0.91132 -7.98414,-1.70888 -1.71457,-0.68542 -3.62067,-0.85114 -5.24069,-1.77952 -1.19757,-1.29932 -2.73078,1.05458 -4.14809,-0.0733 -1.79892,-0.57194 -3.54867,-1.44263 -5.4774,-1.44379 -1.95813,-0.11366 -3.83767,-0.70751 -5.70773,-1.25209 -0.24638,0.88564 -0.31452,-0.37365 -0.62825,-0.23311 -1.46687,-0.9509 -3.11958,-1.28366 -4.80932,-1.00162 -1.79981,-0.65995 -3.64775,-0.55886 -5.50799,-0.29024 -2.52236,0.11498 -5.02722,-0.29994 -7.53539,-0.49886 -2.40808,-0.38762 -4.25669,-2.43914 -6.77444,-2.42938 -1.82976,-0.0834 -3.75114,0.0114 -5.43374,-0.82778 -1.99329,-0.49827 -3.98744,0.77313 -5.98484,0.18409 -5.19697,-0.88725 -10.48737,-0.93037 -15.72689,-1.37665 -1.60592,-0.2732 -3.29092,-0.44734 -4.88046,0.0114 -0.24796,-1.02295 -1.23728,0.55439 -1.87627,-0.17857 -3.72569,-0.79903 -7.57275,-0.37151 -11.33032,-0.91154 -1.94094,-0.13841 -3.92989,-0.23428 -5.83052,0.26368 -3.00348,0.18524 -6.03303,-0.166 -8.9257,-0.98874 -0.63846,-0.0811 -1.27722,-0.19019 -1.92342,-0.1544 z m 86.87401,8.33478 c 0.21758,0.12622 0.55687,0.11498 0,0 z m -24.05036,-5.77796 -0.31282,-0.17381 0.31282,0.17381 z m -7.39236,0.0579 c 0.15534,0.58335 0.57392,-0.18295 0,0 z m -1.1471,1.17413 c -0.06,0.85115 -0.71314,-0.41514 0,0 z m 3.71551,0.20083 c 0.34659,0.86431 -0.78193,-0.29251 0,0 z m 12.91543,0.88448 c -0.49406,0.49935 0.56271,-0.17134 0,0 z m -1.56424,0.0887 c -0.37281,1.04049 0.97541,-0.32234 0,0 z m 1.54105,0.29354 c -0.2032,0.49624 0.77144,-0.52675 0,0 z m -2.00836,0.42868 c 0.20314,0.25053 0.2403,-0.14754 0,0 z m 2.17443,0.2163 c -0.0272,0.4798 0.59568,-0.75744 0,0 z m 6.58906,0.0387 c 0.24871,0.31889 -0.10337,-0.54995 0,0 z m 0.16601,-0.0503 c -0.49909,0.64643 0.51787,-0.25615 0,0 z m 4.30256,0.0887 c -0.69172,0.61307 0.44816,0.0522 0,0 z m -0.70294,0.0811 c -0.0899,0.42694 0.29792,-0.26898 0,0 z m -3.71937,0.22402 c 0.29801,1.05861 0.66262,-0.78969 0,0 z m 3.61511,0.33601 c 0.29091,0.59545 0.45756,-1.12369 0.002,-0.006 l -0.002,0.006 z m 0.86515,-0.0697 c -0.28598,0.62865 0.43005,-0.0973 0,0 z m -115.97238,0.55229 c -0.41452,0.47209 0.41117,-0.17476 0,0 z m 122.46485,0.027 c -0.523,0.45168 0.52703,-0.11766 0,0 z m -1.0969,0.55229 0.21631,-0.0232 -0.21631,0.0232 z m -2.45253,0.48665 c -0.34236,0.21012 -0.26501,-0.8958 0,0 z m 3.37177,-0.0697 c -0.28124,0.74902 0.48606,-0.39707 0,0 z m -4.22148,0.14677 c -0.1563,0.32255 -0.21588,-0.44248 0,0 z m 5.24497,-0.0348 c -0.52336,0.35688 0.47462,-0.0459 0,0 z m -5.32993,0.53684 c 0.24752,0.75856 -0.50383,-1.2135 0,0 z m 2.25556,0.25105 c -0.12812,0.54104 -0.36016,-1.11291 0,0 z m -121.79281,-0.20469 c -0.0965,0.19281 0.18105,-0.0788 0,0 z m -0.34372,0.32443 c 0.28002,0.44637 0.0392,-0.8809 0,0 z m 120.35602,0.027 c -0.39727,0.0611 -0.0729,-0.39283 0,0 z m 16.74294,0.45189 c -1.12667,0.0756 1.1257,-0.0343 0,0 z m -8.04123,0.67975 c 0.90147,0.39579 -1.09745,0.62677 -0.36307,-0.004 l 0.36149,0.004 0.002,2e-5 z m 9.84877,0.40556 c -0.0672,0.92453 0.33375,-0.2224 0,0 z m -1.61442,0.65269 c 0.11156,0.50438 -0.60844,-0.56564 0,0 z m -7.2997,0.24334 c -0.28055,0.43017 -0.0449,-1.05144 0,0 z m -1.33634,-0.19696 c 0.091,0.36428 -0.33184,-0.17553 0,0 z m 23.17361,1.67237 -0.0579,-0.0232 0.0579,0.0232 z m -153.29732,0.48279 c -0.54001,0.12108 1.12572,-0.39468 0.0449,-0.0171 l -0.0449,0.0171 z m 156.99352,0.54843 -0.13897,0.31673 c 0.11517,-0.0114 0.41697,-0.40546 0.13897,-0.31673 z m 9.32352,3.70393 c 0.64049,-0.0546 0.32259,-0.0274 0,0 z m 5.26427,0.49437 0.008,-0.12756 -0.008,0.12756 z m 8.79053,0.87672 c -0.0548,0.82364 0.4351,-0.49445 0,0 z m -0.17381,0.28581 0.10033,-0.3473 9e-5,-3e-4 -0.10033,0.3473 -7e-5,3e-4 z m -154.79588,0.4094 c 0.0369,0.50442 -1.27457,-0.30043 -0.25105,-0.24332 l 0.25105,0.24332 z m 154.85767,-0.004 c -0.63042,0.4981 0.96815,-0.094 0.0348,-0.0697 l -0.22399,-0.14297 0.18923,0.21243 z m -164.86869,0.1662 c 0.28484,1.02379 -0.94008,-0.37209 0,0 z m 166.13165,0.44803 c 0.17972,0.30785 0.13574,-0.34687 0,0 z m -1.37111,0.0152 c -0.72405,0.94813 0.82137,0.43199 0,0 z m 0.28197,0.2665 -0.0348,-0.0811 0.0348,0.0811 z m -6.45,0.22015 c -0.35758,-0.0114 -0.0305,-0.43893 0,0 z m 10.23887,-0.0152 c -0.12926,0.47801 0.29331,0.002 0,0 z m -10.13072,0.33212 c 0.24389,0.71181 -1.15439,-0.10356 -0.29354,-0.33601 l 0.23784,0.27228 0.0558,0.0636 z m -147.24901,-0.2935 c -0.69703,0.83778 0.44217,-0.10756 0,0 z m 157.81618,0.45574 c 0.32581,0.35731 -0.47368,-1.08319 -0.0171,-0.0546 l 0.0171,0.0546 z m -117.25462,-0.0657 c -0.24197,0.74672 -0.96124,-0.43643 -0.13536,-0.24332 l 0.13536,0.24332 z m -31.69766,-0.15839 c 0.51032,0.71103 -0.43007,-0.0133 0,0 z m 145.23291,0.15439 c 0.3244,0.15154 0.30275,-0.382 0,0 z m -141.47106,-0.027 c -0.42587,0.89975 0.76181,-0.23926 0,0 z m -12.99267,0.0152 c -0.0358,0.55266 0.34737,-0.20656 0,0 z m 7.89447,0.76087 c -0.002,0.91558 1.09692,-0.52473 0.18162,-0.31286 l -0.18142,0.31269 -1.2e-4,1.7e-4 z m 154.12,-0.027 c 0.38522,0.0724 -0.3172,-0.35186 0,0 z m -0.59478,0.0232 c 0.1582,-0.17495 -0.46512,-0.13916 0,0 z m 0.36304,0.0114 c -0.27602,0.64432 0.3883,-0.23749 0,0 z m -0.43643,0.027 c 0.20029,0.61336 0.66332,-0.22647 0,0 z m -3.35633,0.33602 c 0.11194,0.27386 0.21329,-0.17 0,0 z m -125.97175,0.30512 0.0114,-0.19321 -0.0114,0.19321 z m 124.02518,0.0424 c 0.53055,-0.15173 0.94568,0.43072 0.30511,0.72224 -0.16239,0.0581 -0.75,-0.82567 -0.30511,-0.72224 z m 3.23272,0.30898 c 0.53354,0.84507 -0.90736,-0.15402 0,0 z m 6.37274,0.0773 c -0.54923,1.09866 1.09478,-0.22278 0,0 z m -129.87654,0.0811 -0.24718,0 0.24718,0 z m 120.54529,0.13897 c 0.0289,0.14963 0.11023,-0.0524 0,0 z m -0.27035,0.22786 c 0.27382,0.39184 -0.93125,-0.65496 -0.0301,-0.0171 l 0.0301,0.0171 z m 2.78856,-0.0773 c 0.055,0.40763 -0.18295,-0.15497 0,0 z m 7.29967,-0.008 c -0.87063,0.67518 1.13128,1.01224 0.3592,0.10813 -0.0802,-0.10584 -0.2346,-0.16772 -0.3592,-0.10813 z m -76.92093,0.61797 c 0.075,0.36878 -0.51285,-0.6257 0,0 z m 77.37284,-0.11593 c -0.45046,0.36439 -0.31358,-0.19321 0,0 z m 0.20469,0.14297 c 0.16506,0.38924 0.64851,-0.63191 0,0 z m -10.67144,0.0152 c -0.0956,0.36607 -0.27699,-0.426 0,0 z m 14.20156,1.22046 -0.027,-0.22401 0.027,0.22401 z m -3.53398,0.12356 c 0.34069,0.0133 -0.15268,-0.32916 0,0 z m -50.90472,0.76086 c 0.44194,0.31979 -0.60607,0.77325 -0.4287,0.20471 -0.37833,0.79083 -0.25681,-0.76471 0.12355,-0.0425 0.13955,-0.0152 0.22731,-0.56208 0.30511,-0.1622 z m 61.16676,0.0697 c -0.008,0.68875 0.56866,0.485 0.40553,0.0773 l -0.18923,-0.13136 -0.2163,0.0541 z m -0.57546,0.67587 c -0.21042,0.67712 0.67362,-1.04824 0.04,-0.0512 l -0.04,0.0512 z m -71.86141,-0.027 c -0.46693,0.91081 0.93571,-0.3441 0,0 z m 72.34804,0.49438 c 0.51673,0.65417 0.36746,-1.11092 0,0 z m 0.48279,0.7879 c 0.0596,0.2909 0.26409,0.61828 -0.36304,0.62182 0.44292,-0.70076 -0.74541,0.48077 -0.6566,-0.44027 0.17514,-0.3798 0.71397,0.006 1.01964,-0.18162 z m 4.89348,1.00419 c -0.49438,-0.004 0.74109,-0.6867 0,0 z m -0.18923,0.2163 c 0.22536,0.5336 -0.36521,-0.0611 0,0 z m -54.61636,0.57546 c 0.16411,0.70305 0.8414,-0.40766 0.0887,-0.0579 l 0.0198,-0.14297 -0.10814,0.20082 z m 20.92964,2.92376 c 0.41673,-0.0236 0.1127,-0.48684 0,0 z m 17.60423,1.18184 c -0.17667,0.0466 0.0491,-0.238 0,0 z m 16.96308,0.52913 c 0.48245,1.05507 -0.78468,0.2103 0,0 z m -16.74295,0.20471 c 0.0573,0.47184 0.26743,-0.23251 0,0 z m 4.37597,0.4094 c 0.25635,0.39464 -0.37976,-0.18619 0,0 z m 5.51145,1.05827 -0.0851,-0.35138 -2e-5,-9e-5 0.0851,0.35137 2e-5,10e-5 z m 10.78346,0.33214 c 0.24956,0.79643 -0.66159,-0.1799 0,0 z m 26.58785,1.28613 -0.30898,-0.1622 0.30898,0.1622 z m 16.37216,4.16353 c 0.41654,0.095 -0.73033,-0.85038 -0.0268,-0.0436 l 0.0268,0.0436 z m 0.35147,-0.20857 c -0.67453,0.44861 0.3426,0.0731 0,0 z m -1.3827,0.0579 c -0.14145,0.55149 0.42232,-0.16867 0,0 z"
       style="opacity:1;fill:#ffffff;fill-opacity:1;stroke:none" />
    <path
       sodipodi:nodetypes="ccccsscccccccc"
       inkscape:connector-curvature="0"
       id="path5236"
       d="m 328.43934,505.69779 c -2.4128,0.45676 -4.85303,0.79896 -7.21767,1.47716 -1.26811,0.35269 -2.56216,0.59671 -3.86763,0.75817 -1.26303,0.18771 -2.52974,0.37187 -3.76241,0.71344 -0.8739,0.46868 -1.39219,1.35 -1.9248,2.14826 -0.27876,0.87513 -0.83623,1.77816 -0.54014,2.72358 0.65166,0.95781 1.86442,1.22235 2.91487,1.49841 1.77137,0.41235 3.60785,0.21355 5.40014,0.45631 1.04144,0.072 2.06896,-0.19751 3.10922,-0.19119 0.94881,-0.14316 1.93256,-0.53817 2.87387,-0.12222 0.83168,0.33902 1.72193,0.37077 2.6014,0.4655 0.56916,0.16943 1.08994,-0.16981 1.58493,-0.29822 0.32233,0.0619 -0.16638,0.40414 0.19019,0.3303 1.08861,0.18637 2.20293,0.0581 3.29617,0.21455 2.04924,0.22011 4.10644,-0.31416 6.15174,0.0171 2.40821,0.40049 4.86026,0.42484 7.29472,0.39364 0.97258,-0.0659 1.83676,0.71784 2.81049,0.2773 0.70257,-0.26375 1.4338,-0.0516 2.15714,-0.10033 0.80749,-0.13707 1.57152,0.17952 2.35761,0.20871 0.95564,-0.12793 1.91124,-0.10871 2.85281,0.10565 1.23356,0.14336 2.47794,0.0872 3.71301,0.21644 0.97424,0.10509 1.96578,-0.0636 2.92511,0.17895 0.87098,0.21868 1.76439,0.27008 2.6564,0.19626 2.16886,-0.0331 4.29663,0.53044 6.46554,0.51835 0.64974,-0.12165 1.22707,0.31701 1.67711,0.55737 0.93243,-0.13554 1.85426,0.26038 2.78732,0.12203 1.21314,0.0567 2.39736,0.35096 3.60151,0.48738 0.93837,-0.1009 1.90612,-0.14944 2.82387,0.11441 1.01786,0.10757 2.0676,0.099 3.04027,0.45745 0.96295,0.17439 1.99156,-0.0285 2.90655,0.38882 0.8011,0.0223 1.64009,0.54733 2.3488,0.50845 0.72176,-0.13688 1.4793,0.15554 2.22172,0.15135 1.33176,0.16239 2.65459,0.39112 3.98728,0.54712 0.89215,-0.19369 1.69435,0.38971 2.56875,0.41874 0.34625,0.0386 0.7452,0.12603 0.93074,0.45743 -0.19698,-0.32095 0.4726,-0.45876 0.49967,-0.12317 0.86845,-0.37475 1.73724,0.20456 2.59866,0.30614 1.44201,0.28491 2.8668,0.70073 4.34146,0.77402 2.03243,0.32141 4.07097,0.6199 6.12884,0.71446 0.92502,0.0285 1.75052,0.49586 2.66047,0.6099 1.43926,0.25171 2.87775,0.52472 4.34024,0.59882 1.31238,0.0643 2.61194,0.31333 3.92703,0.31845 -0.20884,0.0215 -0.16258,-0.50116 -0.37125,-0.30263 0.10585,-0.33093 -0.54938,-0.26508 -0.64219,-0.35891 -0.68588,0.10699 -1.22207,-0.55614 -1.91771,-0.58746 -4.09007,-1.28032 -8.18015,-2.56066 -12.27022,-3.841 -0.95969,-0.12946 -1.82249,-0.6139 -2.76404,-0.81638 -0.90878,-0.4616 -1.92601,-0.64464 -2.93295,-0.73014 -0.44203,-0.17286 -0.93024,-0.21423 -1.34419,-0.45922 0.29826,-0.48608 -0.83614,0.27065 -0.71962,-0.2991 -0.81449,0.4324 -1.55522,-0.21417 -2.24298,-0.5336 -0.38669,-0.25995 -0.56613,0.24722 -0.95562,0.0251 -0.52273,0.0607 -0.86498,-0.30817 -1.16452,-0.61203 -0.69973,-0.19989 -1.08631,-1.12568 -1.92679,-0.75152 -0.50529,0.16639 -1.07232,0.18923 -1.33362,-0.30262 -0.51436,-0.1186 -1.18291,0.40786 -1.53423,0.15839 -0.0723,-0.35303 -0.35837,-0.51035 -0.59467,-0.55596 -0.56461,-0.39288 -1.44141,0.26909 -1.86176,-0.47474 -0.78512,-0.38813 -1.81439,0.17686 -2.46113,-0.57036 -0.88967,-0.30262 -1.83083,-0.44205 -2.74445,-0.65947 -0.83587,-0.11937 -1.75947,-0.17115 -2.3649,-0.84307 -0.73387,-0.57754 -1.72707,-0.17572 -2.56854,-0.38848 -1.18572,-0.37245 -2.45081,-0.41515 -3.63711,-0.77846 -0.78105,-0.31223 -1.64934,-0.38773 -2.38733,-0.81065 -0.54553,-0.59189 -1.24397,0.48041 -1.88961,-0.0333 -0.81948,-0.26055 -1.61656,-0.65717 -2.49519,-0.65771 -0.892,-0.0518 -1.7482,-0.32228 -2.60009,-0.57037 -0.11232,0.40344 -0.14335,-0.1702 -0.28618,-0.10623 -0.66824,-0.43316 -1.42109,-0.58476 -2.19085,-0.45627 -0.81988,-0.30064 -1.66169,-0.25459 -2.5091,-0.13231 -1.14904,0.0523 -2.2901,-0.13669 -3.43267,-0.22725 -1.09697,-0.17667 -1.93909,-1.11114 -3.08602,-1.10668 -0.83353,-0.0381 -1.70879,0.006 -2.47529,-0.37709 -0.90801,-0.22699 -1.81644,0.35219 -2.72633,0.0838 -2.36743,-0.40418 -4.77741,-0.42381 -7.16422,-0.62711 -0.73157,-0.1245 -1.49914,-0.20378 -2.22324,0.006 -0.11289,-0.466 -0.56362,0.25255 -0.85472,-0.0813 -1.69721,-0.36399 -3.44969,-0.16924 -5.1614,-0.41524 -0.88419,-0.063 -1.79024,-0.1068 -2.65604,0.12012 -1.3682,0.0843 -2.74829,-0.0756 -4.06602,-0.45042 -0.29083,-0.0369 -0.58182,-0.0866 -0.8762,-0.0702 z m 39.57456,3.79683 c 0.0992,0.0575 0.25367,0.0523 0,0 z m -10.95588,-2.63211 -0.14259,-0.0792 0.14259,0.0792 z m -3.36752,0.0265 c 0.0708,0.26574 0.26144,-0.0834 0,0 z m -0.52256,0.53485 c -0.0272,0.38773 -0.32485,-0.18904 0,0 z m 1.69256,0.0916 c 0.15782,0.39373 -0.35619,-0.13326 0,0 z m 5.8835,0.40291 c -0.22506,0.22747 0.25634,-0.0781 0,0 z m -0.71257,0.0405 c -0.16982,0.47397 0.44433,-0.14678 0,0 z m 0.702,0.13364 c -0.0925,0.22605 0.35143,-0.23997 0,0 z m -0.9149,0.19528 c 0.0925,0.11423 0.10947,-0.0672 0,0 z m 0.99056,0.0986 c -0.0133,0.21855 0.27135,-0.34505 0,0 z m 3.00156,0.0171 c 0.11327,0.14526 -0.047,-0.25051 0,0 z m 0.0758,-0.0228 c -0.22734,0.29449 0.23591,-0.1167 0,0 z m 1.95999,0.0404 c -0.3151,0.27927 0.20416,0.0238 0,0 z m -0.32022,0.0369 c -0.0409,0.19448 0.13573,-0.1226 0,0 z m -1.69431,0.10204 c 0.13574,0.48225 0.30184,-0.35973 0,0 z m 1.64681,0.15306 c 0.1325,0.27124 0.20844,-0.5119 9.1e-4,-0.002 l -9.1e-4,0.002 z m 0.39411,-0.0318 c -0.13022,0.28638 0.19591,-0.0444 0,0 z m -52.83,0.2516 c -0.18885,0.21504 0.18733,-0.0796 0,0 z m 55.78757,0.0114 c -0.23823,0.20577 0.2401,-0.0535 0,0 z m -0.49967,0.2516 0.0986,-0.0114 -0.0986,0.0114 z m -1.11723,0.22169 c -0.15592,0.0958 -0.1207,-0.40807 0,0 z m 1.53597,-0.0318 c -0.12812,0.34121 0.22143,-0.18085 0,0 z m -1.92304,0.0668 c -0.0712,0.14697 -0.0984,-0.20156 0,0 z m 2.38929,-0.0152 c -0.23841,0.16258 0.21621,-0.0209 0,0 z m -2.42799,0.24456 c 0.1127,0.34555 -0.22952,-0.55281 0,0 z m 1.0275,0.11441 c -0.0584,0.24646 -0.1641,-0.50698 0,0 z m -55.48145,-0.0933 c -0.044,0.0878 0.0824,-0.036 0,0 z m -0.15649,0.14773 c 0.12755,0.20334 0.0171,-0.40129 0,0 z m 54.82695,0.0114 c -0.18104,0.0278 -0.0333,-0.17895 0,0 z m 7.62706,0.20585 c -0.51325,0.0345 0.51279,-0.0152 0,0 z m -3.6631,0.30967 c 0.41066,0.18028 -0.49994,0.28552 -0.16543,-0.002 l 0.16467,0.002 7.3e-4,2e-5 z m 4.48651,0.18466 c -0.0307,0.42116 0.1521,-0.10128 0,0 z m -0.73544,0.29734 c 0.0508,0.22977 -0.27716,-0.25767 0,0 z m -3.3253,0.1108 c -0.12774,0.19595 -0.0204,-0.47896 0,0 z m -0.60875,-0.0897 c 0.0415,0.166 -0.15116,-0.08 0,0 z m 10.55649,0.76183 -0.0265,-0.0114 0.0265,0.0114 z m -69.83299,0.21992 c -0.246,0.0552 0.51281,-0.17971 0.0204,-0.008 l -0.0204,0.008 z m 71.51675,0.24985 -0.0634,0.1443 c 0.0524,-0.006 0.18999,-0.18466 0.0634,-0.1443 z m 4.24724,1.68728 c 0.29177,-0.0249 0.14697,-0.0133 0,0 z m 2.39808,0.2252 0.004,-0.0581 -0.004,0.0581 z m 4.00444,0.3994 c -0.0249,0.37519 0.1982,-0.22525 0,0 z m -0.0792,0.13022 0.0457,-0.15821 4e-5,-1.3e-4 -0.0457,0.1582 -4e-5,1.5e-4 z m -70.51567,0.18656 c 0.0171,0.22978 -0.5806,-0.13688 -0.11441,-0.1108 l 0.11441,0.1108 z m 70.54381,-0.002 c -0.28718,0.22691 0.44102,-0.0428 0.0152,-0.0316 l -0.10204,-0.0651 0.0862,0.0967 z m -75.10421,0.0758 c 0.12983,0.46638 -0.42825,-0.16943 0,0 z m 75.67954,0.20408 c 0.0819,0.14031 0.0619,-0.15801 0,0 z m -0.6246,0.008 c -0.32982,0.43192 0.37418,0.19679 0,0 z m 0.1285,0.12146 -0.0152,-0.0369 0.0152,0.0369 z m -2.93823,0.10032 c -0.16296,-0.006 -0.0133,-0.19995 0,0 z m 4.66422,-0.008 c -0.059,0.21775 0.13364,8.9e-4 0,0 z m -4.61495,0.15135 c 0.11118,0.32426 -0.52587,-0.0472 -0.13364,-0.15307 l 0.10832,0.12413 0.0255,0.0289 z m -67.07775,-0.13365 c -0.31752,0.38165 0.20142,-0.0489 0,0 z m 71.89153,0.20761 c 0.14849,0.16276 -0.21579,-0.49343 -0.008,-0.0249 l 0.008,0.0249 z m -53.41413,-0.0299 c -0.11023,0.34018 -0.43788,-0.19881 -0.0617,-0.1108 l 0.0617,0.1108 z m -14.43953,-0.0722 c 0.23247,0.3239 -0.19593,-0.006 0,0 z m 66.15933,0.0704 c 0.14773,0.0689 0.13783,-0.174 0,0 z m -64.44566,-0.0114 c -0.19401,0.40988 0.34703,-0.10908 0,0 z m -5.91868,0.008 c -0.0171,0.25175 0.1582,-0.0941 0,0 z m 3.59625,0.34661 c -8.9e-4,0.41707 0.49968,-0.23903 0.0826,-0.14259 l -0.0826,0.1424 -4e-5,9e-5 z m 70.20774,-0.0114 c 0.17553,0.0329 -0.14449,-0.1603 0,0 z m -0.27094,0.0114 c 0.072,-0.0798 -0.21188,-0.0634 0,0 z m 0.16544,0.006 c -0.12584,0.29352 0.17686,-0.10813 0,0 z m -0.19881,0.0114 c 0.0912,0.27941 0.30216,-0.10318 0,0 z m -1.52895,0.15306 c 0.051,0.1247 0.0971,-0.0775 0,0 z m -57.38511,0.13898 0.006,-0.088 -0.006,0.088 z m 56.49839,0.0194 c 0.24168,-0.0691 0.43078,0.19622 0.13897,0.32901 -0.0739,0.0265 -0.34164,-0.37612 -0.13897,-0.32901 z m 1.47262,0.14069 c 0.24305,0.38496 -0.41334,-0.0702 0,0 z m 2.90304,0.0352 c -0.2502,0.50049 0.49871,-0.10147 0,0 z m -59.16391,0.0369 -0.11251,0 0.11251,0 z m 54.91315,0.0634 c 0.0133,0.0682 0.0503,-0.0238 0,0 z m -0.12317,0.10375 c 0.1247,0.17857 -0.42423,-0.29835 -0.0133,-0.008 l 0.0133,0.008 z m 1.27031,-0.0352 c 0.0249,0.18562 -0.0834,-0.0706 0,0 z m 3.32528,-0.004 c -0.39661,0.30757 0.51534,0.46113 0.16372,0.0493 -0.0366,-0.0482 -0.1068,-0.0763 -0.16372,-0.0493 z m -35.04053,0.28153 c 0.0341,0.16791 -0.23362,-0.28505 0,0 z m 35.24638,-0.0527 c -0.20519,0.166 -0.14278,-0.088 0,0 z m 0.0933,0.0651 c 0.0752,0.17724 0.29544,-0.28786 0,0 z m -4.86125,0.008 c -0.0436,0.16677 -0.12622,-0.19405 0,0 z m 6.46938,0.55597 -0.0114,-0.10204 0.0114,0.10204 z m -1.60988,0.0563 c 0.15515,0.006 -0.0695,-0.15002 0,0 z m -23.18911,0.34661 c 0.20132,0.14564 -0.2761,0.35223 -0.19528,0.0933 -0.17229,0.36027 -0.11689,-0.34836 0.0564,-0.0194 0.0636,-0.008 0.10356,-0.25605 0.13897,-0.0739 z m 27.86387,0.0318 c -0.004,0.31376 0.25906,0.22095 0.18466,0.0352 l -0.0862,-0.0598 -0.0986,0.0246 z m -0.26214,0.30789 c -0.0958,0.30847 0.30686,-0.47751 0.019,-0.0232 l -0.019,0.0232 z m -32.73571,-0.0114 c -0.2127,0.4149 0.42625,-0.15668 0,0 z m 32.9574,0.22521 c 0.23539,0.298 0.16734,-0.50609 0,0 z m 0.21992,0.35892 c 0.027,0.1325 0.12031,0.28165 -0.16544,0.28327 0.20178,-0.31924 -0.33955,0.21901 -0.29909,-0.20058 0.0798,-0.17305 0.32523,0.002 0.46447,-0.0826 z m 2.22918,0.45744 c -0.22521,-0.002 0.33759,-0.31282 0,0 z m -0.0862,0.0986 c 0.10261,0.24307 -0.16639,-0.0278 0,0 z m -24.87991,0.26214 c 0.0748,0.32027 0.3833,-0.18561 0.0405,-0.0265 l 0.01,-0.0651 -0.0493,0.0916 z m 9.53428,1.33188 c 0.1898,-0.0114 0.0514,-0.22177 0,0 z m 8.01942,0.53837 c -0.0805,0.0213 0.0223,-0.10832 0,0 z m 7.72735,0.24106 c 0.21976,0.48061 -0.35745,0.0957 0,0 z m -7.62708,0.0933 c 0.0261,0.21495 0.12184,-0.10585 0,0 z m 1.99344,0.18656 c 0.1167,0.17972 -0.17305,-0.0849 0,0 z m 2.51067,0.48209 -0.0387,-0.16011 -2e-5,-3e-5 0.0388,0.1601 0,6e-5 z m 4.91229,0.15135 c 0.11365,0.36281 -0.30136,-0.0821 0,0 z m 12.11183,0.58589 -0.14069,-0.0739 0.14069,0.0739 z m 7.45818,1.89664 c 0.1898,0.0432 -0.33272,-0.38738 -0.0114,-0.0198 l 0.0114,0.0198 z m 0.1601,-0.095 c -0.30726,0.20435 0.15611,0.0333 0,0 z m -0.62987,0.0265 c -0.0643,0.25124 0.19239,-0.0769 0,0 z"
       style="opacity:1;fill:#ffffff;fill-opacity:1;stroke:none" />
    <path
       style="opacity:1;fill:#ffffff;fill-opacity:1;stroke:none"
       d="m 251.97228,323.15226 c -6.87678,1.30183 -13.83167,2.27712 -20.57109,4.21008 -3.61429,1.00515 -7.30244,1.70067 -11.02316,2.16082 -3.5998,0.53495 -7.21001,1.0599 -10.72326,2.03344 -2.4907,1.33577 -3.9679,3.8476 -5.48589,6.12274 -0.79452,2.49419 -2.38334,5.06792 -1.53945,7.76244 1.85734,2.72988 5.3138,3.48389 8.30768,4.27065 5.04858,1.17527 10.28275,0.60861 15.39094,1.3005 2.96821,0.2054 5.89677,-0.56289 8.86161,-0.54488 2.70419,-0.40807 5.50799,-1.53385 8.19082,-0.3481 2.37036,0.96622 4.90766,1.05678 7.41428,1.32677 1.62213,0.48284 3.10646,-0.48376 4.5172,-0.84998 0.91865,0.1759 -0.47446,1.15185 0.54198,0.94142 3.10264,0.53093 6.27862,0.16562 9.39445,0.61148 5.84056,0.62732 11.70374,-0.89537 17.53307,0.0466 6.86364,1.14148 13.85224,1.21089 20.79074,1.12193 2.77192,-0.1879 5.23493,2.04594 8.01015,0.79031 2.0024,-0.75169 4.08646,-0.14696 6.1481,-0.28573 2.30145,-0.3908 4.479,0.51173 6.71941,0.59484 2.72366,-0.36454 5.44726,-0.30968 8.13079,0.30097 3.51579,0.40858 7.06243,0.24851 10.58252,0.61685 2.77666,0.29926 5.60262,-0.18124 8.33683,0.50976 2.48236,0.62325 5.02866,0.76974 7.57101,0.55932 6.18146,-0.0942 12.24583,1.51183 18.42744,1.47737 1.85184,-0.34665 3.4973,0.90354 4.77995,1.58858 2.65752,-0.3864 5.28485,0.74211 7.94414,0.34787 3.45757,0.16163 6.83273,1.00024 10.26469,1.38904 2.67447,-0.28742 5.4326,-0.42577 8.04832,0.32594 2.90097,0.30681 5.89287,0.28225 8.66507,1.30378 2.74452,0.49702 5.67613,-0.0811 8.28398,1.1082 2.28321,0.0638 4.6744,1.5599 6.69431,1.44911 2.05708,-0.39021 4.21615,0.44359 6.33211,0.4315 3.79566,0.46278 7.5659,1.11475 11.3642,1.55935 2.54269,-0.55205 4.82902,1.11075 7.32118,1.19343 0.98688,0.11042 2.12391,0.3593 2.65271,1.30378 -0.56143,-0.91475 1.34695,-1.30755 1.42413,-0.35099 2.47514,-1.06813 4.95128,0.58298 7.40643,0.87252 4.10985,0.812 8.17066,1.99711 12.3736,2.20603 5.79265,0.91602 11.60269,1.76673 17.46778,2.03624 2.63647,0.0813 4.98918,1.41331 7.58268,1.73832 4.10205,0.71739 8.20186,1.49552 12.37009,1.70664 3.74045,0.18371 7.44432,0.89309 11.19242,0.90767 -0.5952,0.0611 -0.46327,-1.42834 -1.05808,-0.86251 0.30192,-0.94319 -1.56578,-0.75554 -1.83029,-1.02297 -1.9548,0.30505 -3.48302,-1.58502 -5.46567,-1.67428 -11.65712,-3.64911 -23.31428,-7.29817 -34.9714,-10.94726 -2.73521,-0.36909 -5.19427,-1.74969 -7.8778,-2.32675 -2.59009,-1.31565 -5.48929,-1.83733 -8.3592,-2.08101 -1.25981,-0.49257 -2.65133,-0.61055 -3.83112,-1.3088 0.85008,-1.38539 -2.38308,0.77136 -2.05093,-0.85248 -2.32142,1.23239 -4.43255,-0.61043 -6.39274,-1.52076 -1.10211,-0.74095 -1.61357,0.70456 -2.72364,0.0716 -1.4898,0.17305 -2.46526,-0.87833 -3.31895,-1.74432 -1.99436,-0.56975 -3.09615,-3.20835 -5.49154,-2.14195 -1.44014,0.47437 -3.05625,0.53961 -3.80103,-0.86249 -1.46595,-0.33816 -3.3714,1.16244 -4.37263,0.4513 -0.20639,-1.0062 -1.02146,-1.45461 -1.69494,-1.58459 -1.60919,-1.11971 -4.10817,0.76694 -5.30618,-1.35301 -2.23771,-1.10622 -5.17121,0.50411 -7.01449,-1.6256 -2.53566,-0.86253 -5.21801,-1.25989 -7.82194,-1.8796 -2.3823,-0.33991 -5.01468,-0.48781 -6.74019,-2.4028 -2.09163,-1.64605 -4.92236,-0.50093 -7.32065,-1.10722 -3.37944,-1.06152 -6.98506,-1.18319 -10.36608,-2.21869 -2.22608,-0.8899 -4.70085,-1.10506 -6.80417,-2.31041 -1.55484,-1.68694 -3.54547,1.3692 -5.38562,-0.0952 -2.3356,-0.74257 -4.60735,-1.87303 -7.11149,-1.87453 -2.54231,-0.14754 -4.98257,-0.91858 -7.41054,-1.62563 -0.31989,1.14984 -0.40836,-0.48512 -0.81568,-0.30267 -1.90448,-1.23457 -4.05026,-1.66661 -6.24411,-1.30042 -2.33676,-0.85684 -4.736,-0.7256 -7.15122,-0.37683 -3.27485,0.14925 -6.527,-0.38941 -9.78346,-0.64769 -3.12649,-0.50325 -5.52659,-3.16683 -8.79548,-3.15415 -2.37563,-0.10832 -4.87024,0.0152 -7.05481,-1.07474 -2.58796,-0.64691 -5.17703,1.00379 -7.77032,0.23902 -6.74742,-1.15196 -13.61612,-1.20794 -20.41877,-1.78735 -2.08501,-0.35472 -4.27271,-0.58081 -6.33648,0.0152 -0.32194,-1.32814 -1.60639,0.71979 -2.43602,-0.23185 -4.83719,-1.03741 -9.83195,-0.48235 -14.71054,-1.1835 -2.51998,-0.17971 -5.10231,-0.30416 -7.56997,0.34237 -3.8995,0.2405 -7.83289,-0.21554 -11.58855,-1.28373 -0.82892,-0.10528 -1.65825,-0.24691 -2.49724,-0.20044 z m 112.79154,10.82132 c 0.28249,0.16392 0.723,0.14926 0,0 z m -31.22542,-7.50171 -0.40614,-0.22567 0.40614,0.22567 z m -9.59775,0.0752 c 0.20168,0.75737 0.74512,-0.23753 0,0 z m -1.48933,1.5244 c -0.0779,1.10509 -0.92588,-0.53898 0,0 z m 4.82397,0.26076 c 0.45001,1.12216 -1.01518,-0.37978 0,0 z m 16.76857,1.14833 c -0.64147,0.64834 0.73057,-0.22245 0,0 z m -2.03093,0.11518 c -0.48403,1.35091 1.26642,-0.4185 0,0 z m 2.00081,0.38111 c -0.26382,0.6443 1.00157,-0.68388 0,0 z m -2.60753,0.55658 c 0.26376,0.32527 0.312,-0.19156 0,0 z m 2.82315,0.28083 c -0.0354,0.62295 0.77339,-0.98341 0,0 z m 8.5548,0.0503 c 0.3229,0.41403 -0.13421,-0.71403 0,0 z m 0.21553,-0.0653 c -0.64798,0.83928 0.67238,-0.33257 0,0 z m 5.58617,0.11517 c -0.89809,0.79597 0.58186,0.0678 0,0 z m -0.91265,0.10528 c -0.1167,0.55431 0.3868,-0.34922 0,0 z m -4.82898,0.29085 c 0.38691,1.37442 0.8603,-1.0253 0,0 z m 4.69361,0.43624 c 0.3777,0.77311 0.59408,-1.45891 0.002,-0.008 l -0.002,0.008 z m 1.12326,-0.0904 c -0.37131,0.81621 0.55835,-0.12621 0,0 z m -150.57095,0.71707 c -0.53819,0.61292 0.53382,-0.22689 0,0 z m 159.00034,0.035 c -0.67903,0.58642 0.68426,-0.15268 0,0 z m -1.42413,0.71706 0.28084,-0.0301 -0.28084,0.0301 z m -3.18421,0.63183 c -0.44451,0.2728 -0.34408,-1.16305 0,0 z m 4.37768,-0.0904 c -0.36514,0.97249 0.63107,-0.51551 0,0 z m -5.4809,0.19058 c -0.20292,0.41877 -0.28029,-0.57451 0,0 z m 6.80973,-0.0453 c -0.67948,0.46333 0.61622,-0.0596 0,0 z m -6.92003,0.69697 c 0.32137,0.98488 -0.65413,-1.57551 0,0 z m 2.92848,0.32596 c -0.16639,0.70244 -0.46761,-1.44494 0,0 z m -158.12782,-0.26576 c -0.12527,0.25032 0.23505,-0.10223 0,0 z m -0.44626,0.42122 c 0.36356,0.57954 0.0508,-1.14369 0,0 z m 156.26239,0.035 c -0.5158,0.0794 -0.0946,-0.51003 0,0 z m 21.73793,0.58669 c -1.4628,0.0982 1.46154,-0.0445 0,0 z m -10.44022,0.88256 c 1.17042,0.51385 -1.42485,0.81375 -0.47138,-0.006 l 0.46933,0.006 0.002,2e-5 z m 12.78701,0.52653 c -0.0872,1.20035 0.43331,-0.28874 0,0 z m -2.09607,0.84741 c 0.14487,0.65485 -0.78994,-0.73438 0,0 z m -9.47744,0.31595 c -0.36426,0.5585 -0.0583,-1.36512 0,0 z m -1.73502,-0.25573 c 0.11822,0.47296 -0.43084,-0.2279 0,0 z m 30.08709,2.17131 -0.0752,-0.0301 0.0752,0.0301 z m -199.03119,0.62682 c -0.70113,0.15725 1.46155,-0.51243 0.0582,-0.0223 l -0.0582,0.0223 z m 203.83011,0.71204 -0.18047,0.41122 c 0.14963,-0.0152 0.54136,-0.52642 0.18047,-0.41122 z m 12.10503,4.80894 c 0.83159,-0.071 0.41885,-0.0356 0,0 z m 6.8348,0.64186 0.01,-0.16563 -0.01,0.16563 z m 11.41305,1.13828 c -0.0712,1.06935 0.56489,-0.64198 0,0 z m -0.22567,0.37108 0.13021,-0.45092 1.4e-4,-4e-4 -0.13022,0.45092 -10e-5,4e-4 z M 236.698,348.93085 c 0.048,0.65491 -1.65483,-0.39005 -0.32594,-0.3159 l 0.32594,0.3159 z m 201.05707,-0.006 c -0.81851,0.64668 1.25696,-0.12203 0.0453,-0.0904 l -0.29084,-0.18561 0.2457,0.27581 z m -214.05473,0.21577 c 0.36982,1.32923 -1.22054,-0.48309 0,0 z m 215.69446,0.58169 c 0.23334,0.39969 0.17628,-0.45035 0,0 z m -1.78015,0.0198 c -0.94007,1.23099 1.0664,0.56088 0,0 z m 0.36607,0.346 -0.0453,-0.10528 0.0453,0.10528 z m -8.37424,0.28583 c -0.46426,-0.0152 -0.0396,-0.56987 0,0 z m 13.29348,-0.0198 c -0.16791,0.62062 0.3808,0.002 0,0 z m -13.15308,0.43122 c 0.31665,0.92417 -1.49877,-0.13441 -0.38111,-0.43625 l 0.30879,0.35349 0.0723,0.0826 z M 238.56842,350.4043 c -0.90498,1.08772 0.57407,-0.13973 0,0 z m 204.89819,0.5917 c 0.42301,0.46391 -0.61501,-1.40634 -0.0223,-0.071 l 0.0223,0.071 z m -152.23572,-0.0853 c -0.31415,0.96949 -1.24801,-0.56663 -0.17571,-0.31591 l 0.17571,0.31591 z m -41.15417,-0.20565 c 0.66256,0.92317 -0.55838,-0.0171 0,0 z m 188.5609,0.20047 c 0.42119,0.19673 0.39309,-0.49598 0,0 z m -183.67676,-0.035 c -0.55292,1.16817 0.98909,-0.31063 0,0 z m -16.86883,0.0198 c -0.0464,0.71752 0.45099,-0.26818 0,0 z m 10.24966,0.98785 c -0.002,1.18873 1.42417,-0.68127 0.2358,-0.4062 l -0.23555,0.40599 -1.5e-4,2.1e-4 z m 200.09933,-0.035 c 0.50015,0.0939 -0.41184,-0.45684 0,0 z m -0.77224,0.0301 c 0.2054,-0.22716 -0.60388,-0.18067 0,0 z m 0.47135,0.0152 c -0.35836,0.83654 0.50415,-0.30835 0,0 z m -0.56663,0.035 c 0.26005,0.79635 0.86122,-0.29404 0,0 z m -4.35763,0.43628 c 0.14525,0.35556 0.27691,-0.22072 0,0 z m -163.55348,0.39615 0.0152,-0.25086 -0.0152,0.25086 z m 161.02617,0.0552 c 0.68883,-0.19699 1.22781,0.55923 0.39615,0.93771 -0.21084,0.0754 -0.97376,-1.072 -0.39615,-0.93771 z m 4.19715,0.40116 c 0.69271,1.09718 -1.17805,-0.19997 0,0 z m 8.27395,0.10033 c -0.71308,1.42643 1.42141,-0.28924 0,0 z m -168.62321,0.10527 -0.32091,0 0.32091,0 z m 156.50813,0.18048 c 0.0375,0.19427 0.14316,-0.068 0,0 z m -0.351,0.29584 c 0.35551,0.50873 -1.20908,-0.85036 -0.039,-0.0223 l 0.039,0.0223 z m 3.62048,-0.10033 c 0.0714,0.52924 -0.23753,-0.20119 0,0 z m 9.47741,-0.01 c -1.13036,0.87662 1.46879,1.31423 0.46636,0.14031 -0.10413,-0.13745 -0.30458,-0.21777 -0.46636,-0.14031 z m -99.8691,0.80233 c 0.0975,0.47879 -0.66585,-0.81236 0,0 z M 454.3782,354.4356 c -0.58484,0.47311 -0.40713,-0.25084 0,0 z m 0.26577,0.18561 c 0.21428,0.50537 0.84198,-0.82043 0,0 z m -13.8551,0.0198 c -0.12413,0.47527 -0.35964,-0.55309 0,0 z m 18.43836,1.58456 -0.035,-0.29084 0.035,0.29084 z m -4.58829,0.16048 c 0.44233,0.0171 -0.19822,-0.42737 0,0 z m -66.09135,0.98785 c 0.57379,0.41521 -0.78689,1.00394 -0.55659,0.26578 -0.4912,1.02677 -0.33344,-0.99285 0.16048,-0.0552 0.18124,-0.0198 0.29512,-0.72976 0.39613,-0.2106 z m 79.41493,0.0904 c -0.01,0.89424 0.7383,0.62968 0.52651,0.10033 l -0.24569,-0.17058 -0.28082,0.0702 z m -0.74714,0.87751 c -0.27321,0.87913 0.87457,-1.36096 0.052,-0.0664 l -0.052,0.0664 z m -93.30016,-0.035 c -0.60623,1.18253 1.21487,-0.44675 0,0 z m 93.93197,0.64186 c 0.67088,0.84934 0.47707,-1.44234 0,0 z m 0.6268,1.02298 c 0.0773,0.37766 0.34289,0.80273 -0.47134,0.80732 0.57506,-0.90984 -0.96779,0.62419 -0.85248,-0.57164 0.22738,-0.49309 0.92697,0.008 1.32382,-0.2358 z m 6.35339,1.30375 c -0.64187,-0.006 0.96218,-0.89155 0,0 z m -0.24568,0.28084 c 0.29258,0.69279 -0.47418,-0.0794 0,0 z m -70.91032,0.74714 c 0.21307,0.91279 1.09243,-0.52929 0.11518,-0.0752 l 0.0257,-0.18562 -0.1405,0.26076 z m 27.17367,3.79602 c 0.54106,-0.0306 0.1464,-0.63208 0,0 z m 22.85619,1.53443 c -0.22937,0.0605 0.0638,-0.30901 0,0 z m 22.02375,0.68698 c 0.62639,1.36984 -1.01877,0.27304 0,0 z m -21.73795,0.26579 c 0.0744,0.6126 0.34723,-0.30188 0,0 z m 5.68146,0.53152 c 0.33285,0.51239 -0.49305,-0.24172 0,0 z m 7.15571,1.37398 -0.11041,-0.45619 -2e-5,-1.1e-4 0.11042,0.45619 10e-6,1.1e-4 z m 14.00055,0.43124 c 0.32402,1.03403 -0.85897,-0.23357 0,0 z m 34.51993,1.66982 -0.40116,-0.21059 0.40116,0.21059 z m 21.25654,5.40567 c 0.5408,0.12336 -0.94821,-1.10407 -0.0348,-0.0565 l 0.0348,0.0565 z m 0.45633,-0.27081 c -0.87578,0.58247 0.44479,0.095 0,0 z m -1.79522,0.0752 c -0.18371,0.71603 0.54833,-0.21899 0,0 z"
       id="path5238"
       inkscape:connector-curvature="0"
       sodipodi:nodetypes="ccccsscccccccc" />
  </g>
  <g
     inkscape:groupmode="layer"
     id="layer4"
     inkscape:label="Sound waves "
     style="display:none" />
</svg>
